<?xml version="1.0" standalone="no"?>
<!DOCTYPE svg PUBLIC "-//W3C//DTD SVG 20010904//EN"
 "http://www.w3.org/TR/2001/REC-SVG-20010904/DTD/svg10.dtd">
<svg version="1.0" xmlns="http://www.w3.org/2000/svg"
 width="200.000000pt" height="200.000000pt" viewBox="0 0 200.000000 200.000000"
 preserveAspectRatio="xMidYMid meet">
<metadata>
Created by potrace 1.14, written by Peter Selinger 2001-2017
</metadata>
<g transform="translate(0.000000,200.000000) scale(0.100000,-0.100000)"
fill="#000000" stroke="none">
<path d="M988 1815 c-3 -3 -34 -13 -69 -21 -34 -8 -68 -18 -73 -23 -6 -5 -28
-14 -48 -20 -21 -7 -38 -17 -38 -22 0 -5 -5 -9 -12 -9 -12 0 -97 -62 -146
-107 -41 -37 -122 -143 -122 -159 0 -7 -4 -14 -8 -16 -16 -6 -62 -109 -68
-151 -6 -42 -33 -77 -66 -90 -10 -3 -18 -13 -18 -21 0 -7 -6 -16 -14 -19 -8
-3 -17 -19 -21 -36 -4 -17 -11 -33 -16 -36 -12 -8 -12 -162 0 -169 5 -3 12
-18 16 -33 3 -16 24 -49 45 -74 27 -32 40 -59 45 -92 4 -26 11 -49 15 -52 5
-3 11 -23 15 -45 4 -22 12 -46 18 -53 7 -7 25 -38 42 -70 16 -32 50 -79 75
-105 58 -60 165 -140 199 -149 14 -3 28 -9 31 -14 6 -8 98 -35 175 -51 58 -12
259 -5 278 9 6 6 30 14 52 18 22 4 54 14 70 23 76 41 133 79 164 109 18 19 43
41 55 51 31 24 104 140 112 176 4 17 10 33 14 36 5 3 13 34 20 70 6 36 16 79
21 96 12 39 12 143 0 197 -5 23 -15 78 -21 122 -7 44 -15 85 -19 90 -4 6 -13
36 -20 67 -7 32 -17 60 -22 63 -5 4 -9 14 -9 23 0 10 -9 35 -20 57 -11 22 -20
44 -20 50 0 21 -58 126 -93 169 -75 90 -203 174 -303 197 -58 14 -207 23 -216
14z m-186 -243 c-3 -33 0 -41 23 -56 24 -16 30 -16 58 -3 18 8 42 18 55 22 12
3 22 10 22 15 0 5 16 14 35 21 19 7 35 17 35 21 0 4 7 8 15 8 9 0 15 -9 15
-24 0 -32 43 -66 73 -58 29 7 46 25 58 62 12 33 21 37 41 18 43 -41 102 -71
148 -76 49 -4 50 -4 50 23 0 27 1 27 18 12 10 -10 30 -17 45 -17 21 0 28 -7
37 -37 7 -21 18 -45 25 -53 7 -8 16 -30 20 -47 3 -18 10 -33 14 -33 4 0 13
-24 20 -52 8 -29 17 -57 21 -63 4 -5 13 -37 20 -70 7 -33 16 -67 21 -76 19
-37 30 -246 19 -351 -6 -57 -15 -107 -19 -113 -5 -5 -14 -28 -21 -49 -23 -71
-103 -188 -154 -225 -11 -8 -27 -22 -37 -32 -9 -9 -26 -20 -38 -24 -12 -3 -21
-10 -21 -14 0 -14 -133 -69 -180 -75 l-45 -6 33 15 c25 12 32 21 32 43 0 47
-32 67 -104 67 -70 0 -96 -16 -96 -60 0 -21 8 -29 46 -45 25 -11 55 -20 67
-21 21 0 20 -1 -3 -10 -55 -22 -285 10 -365 51 -22 11 -45 20 -51 20 -7 0 -14
3 -16 8 -2 4 -25 23 -53 42 -27 19 -56 42 -63 52 -7 10 -19 18 -25 18 -16 1
-117 158 -117 182 0 10 -4 18 -9 18 -8 0 -33 83 -48 162 -3 15 -22 44 -42 66
-42 43 -63 103 -63 173 1 53 20 129 34 129 4 0 8 7 8 15 0 37 83 47 125 14 22
-18 29 -20 36 -8 5 8 9 19 9 26 0 18 52 123 93 186 20 31 37 59 37 62 0 2 30
35 66 72 36 37 73 78 81 91 8 12 16 22 17 22 1 0 0 -17 -2 -38z"/>
<path d="M833 1423 c-13 -2 -23 -8 -23 -12 0 -4 -16 -13 -35 -20 -19 -7 -35
-16 -35 -20 0 -4 -11 -13 -25 -19 -25 -12 -34 -45 -15 -57 6 -4 27 8 47 25 83
73 180 80 265 18 23 -16 34 -4 21 25 -22 47 -118 76 -200 60z"/>
<path d="M1318 1412 c-36 -24 -69 -63 -65 -76 7 -23 43 -17 55 8 17 39 51 43
145 20 22 -5 27 -3 27 12 0 13 -14 25 -40 37 -51 22 -88 22 -122 -1z"/>
<path d="M976 1134 c-22 -21 -20 -41 4 -54 40 -22 80 26 48 58 -16 16 -33 15
-52 -4z"/>
<path d="M1296 1134 c-22 -21 -20 -41 4 -54 24 -13 60 2 60 25 0 15 -26 45
-40 45 -5 0 -16 -7 -24 -16z"/>
</g>
</svg>
